<?xml version="1.0" encoding="iso-8859-1"?>
<!-- Generator: Adobe Illustrator 19.0.0, SVG Export Plug-In . SVG Version: 6.00 Build 0)  -->
<svg version="1.1" id="Layer_1" xmlns="http://www.w3.org/2000/svg" xmlns:xlink="http://www.w3.org/1999/xlink" x="0px" y="0px"
	 viewBox="0 0 511.999 511.999" style="enable-background:new 0 0 511.999 511.999;" xml:space="preserve">
<g>
	<g>
		<path d="M288.496,224.803h-24.372v-19.604c24.524-3.907,43.329-25.199,43.329-50.805c0-28.37-23.082-51.453-51.453-51.453
			c-28.37,0-51.453,23.082-51.453,51.453c0,25.606,18.806,46.897,43.329,50.805v19.604h-24.372c-4.487,0-8.124,3.637-8.124,8.124
			c0,4.487,3.637,8.124,8.124,8.124h24.372v27.08c0,4.487,3.637,8.124,8.124,8.124s8.124-3.637,8.124-8.124v-27.08h24.372
			c4.487,0,8.124-3.637,8.124-8.124C296.62,228.44,292.983,224.803,288.496,224.803z M255.999,189.597
			c-19.411,0-35.204-15.793-35.204-35.204s15.793-35.204,35.204-35.204s35.205,15.793,35.205,35.204
			S275.411,189.597,255.999,189.597z"/>
	</g>
</g>
<g>
	<g>
		<path d="M446.589,447.782l-41.714-100.862c-1.715-4.147-6.467-6.118-10.612-4.402c-4.147,1.715-6.117,6.466-4.402,10.612
			L425.21,438.6l-68.714-19.095c-3.592-0.999-7.405,0.578-9.244,3.823l-35.154,62.052l-44.085-106.595
			c8.361-0.543,16.719-1.626,24.969-3.267c49.661-9.879,92.502-38.504,120.633-80.605s38.183-92.637,28.304-142.298
			C424.33,64.184,346.221,0,256.194,0c-12.402,0-24.91,1.237-37.176,3.678c-49.661,9.878-92.502,38.504-120.633,80.605
			c-28.131,42.101-38.183,92.637-28.304,142.298c7.158,35.984,24.338,67.952,48.263,93.216L65.41,447.782
			c-1.187,2.869-0.634,6.166,1.425,8.491c2.06,2.326,5.267,3.275,8.257,2.44l78.647-21.855l40.236,71.021
			c1.448,2.556,4.154,4.12,7.067,4.12c0.167,0,0.335-0.005,0.502-0.015c3.1-0.192,5.82-2.134,7.007-5.004l37.373-90.366
			c1.715-4.147-0.257-8.898-4.402-10.612c-4.148-1.715-8.898,0.257-10.612,4.402l-31.007,74.975l-35.154-62.052
			c-1.838-3.245-5.649-4.825-9.244-3.823l-68.714,19.095l44.127-106.697c32.413,28.5,74.385,45.955,119.649,47.211l52.883,127.867
			c1.187,2.871,3.906,4.813,7.007,5.004c0.168,0.01,0.336,0.015,0.502,0.015c2.912,0,5.62-1.563,7.067-4.12l40.236-71.021
			l78.647,21.855c2.995,0.834,6.198-0.116,8.257-2.44C447.223,453.948,447.776,450.652,446.589,447.782z M297.742,357.809
			l-5.29-26.597c13.468-3.452,26.205-8.736,37.934-15.664l15.09,22.584C330.798,346.96,314.753,353.607,297.742,357.809z
			 M281.359,317.085c-8.382,1.668-16.93,2.513-25.406,2.513c-61.784,0-115.382-44.008-127.441-104.642
			c-6.761-33.996,0.151-68.636,19.463-97.54c19.313-28.903,48.671-48.545,82.667-55.308c8.382-1.668,16.93-2.513,25.405-2.513
			c61.784,0,115.382,44.008,127.441,104.643c6.763,33.996-0.149,68.635-19.462,97.539
			C344.713,290.681,315.354,310.323,281.359,317.085z M358.986,329.105l-15.098-22.596c10.86-8.191,20.602-17.945,28.945-29.075
			l22.6,15.101C385.042,306.642,372.761,318.922,358.986,329.105z M404.461,279.024l-22.6-15.101
			c7.091-11.967,12.372-24.699,15.785-37.868l26.654,5.301C420.163,247.979,413.517,264.025,404.461,279.024z M427.47,215.421
			l-26.641-5.299c1.913-13.487,1.921-27.278-0.044-41.041l26.597-5.29C430.01,181.115,430.01,198.481,427.47,215.421z
			 M424.209,147.856l-26.599,5.292c-3.485-13.536-8.831-26.25-15.73-37.888l22.551-15.069
			C413.227,114.75,419.967,130.76,424.209,147.856z M395.382,86.695l-22.551,15.069c-8.29-10.989-18.068-20.744-29.007-28.979
			l15.071-22.556C372.747,60.477,385.069,72.763,395.382,86.695z M297.751,21.346c16.934,4.218,32.973,10.958,47.648,19.833
			L330.32,63.747c-11.723-6.948-24.456-12.29-37.868-15.761L297.751,21.346z M256.194,16.248c8.68,0,17.236,0.66,25.621,1.923
			l-5.297,26.631c-6.708-0.953-13.543-1.454-20.472-1.454c-6.847,0-13.733,0.498-20.562,1.469l-5.29-26.599
			C238.826,16.912,247.539,16.248,256.194,16.248z M214.258,21.386l5.29,26.597c-13.468,3.452-26.205,8.736-37.934,15.664
			l-15.09-22.584C181.202,32.234,197.247,25.588,214.258,21.386z M153.014,50.09l15.098,22.596
			c-10.86,8.191-20.603,17.945-28.945,29.075l-22.6-15.101C126.958,72.553,139.239,60.272,153.014,50.09z M107.539,100.17
			l22.6,15.101c-7.091,11.967-12.374,24.699-15.785,37.868l-26.654-5.302C91.837,131.215,98.483,115.17,107.539,100.17z
			 M84.531,163.773l26.639,5.299c-1.912,13.487-1.919,27.278,0.046,41.041l-26.597,5.29
			C81.991,198.08,81.991,180.714,84.531,163.773z M87.791,231.339l26.599-5.29c3.485,13.535,8.831,26.25,15.73,37.888
			l-22.551,15.069C98.773,264.444,92.033,248.434,87.791,231.339z M116.618,292.499l22.551-15.069
			c8.29,10.989,18.068,20.744,29.007,28.979l-15.071,22.556C139.253,318.718,126.931,306.432,116.618,292.499z M214.249,357.849
			c-16.934-4.218-32.973-10.958-47.648-19.833l15.079-22.569c11.723,6.948,24.456,12.29,37.868,15.761L214.249,357.849z
			 M230.184,361.024l5.298-26.631c6.708,0.953,13.543,1.454,20.472,1.454c6.847,0,13.733-0.498,20.562-1.469l5.29,26.599
			c-8.632,1.305-17.346,1.969-26,1.969C247.126,362.946,238.569,362.287,230.184,361.024z"/>
	</g>
</g>
<g>
</g>
<g>
</g>
<g>
</g>
<g>
</g>
<g>
</g>
<g>
</g>
<g>
</g>
<g>
</g>
<g>
</g>
<g>
</g>
<g>
</g>
<g>
</g>
<g>
</g>
<g>
</g>
<g>
</g>
</svg>
